<svg xmlns="http://www.w3.org/2000/svg" width="500" height="500" viewBox="0 0 500 500"><rect width="100%" height="100%" fill="#DDDDDD"/><path fill="#999999" d="M100.81 231.955h9.43l.45 5.37q1.87-2.87 4.61-4.47 2.74-1.59 6.13-1.59 5.69 0 8.88 3.57t3.19 11.19v23.44h-10.16v-23.4q0-3.78-1.53-5.36-1.52-1.57-4.61-1.57-2.01 0-3.6.81-1.6.81-2.67 2.31v27.21h-10.12zm38.69 19.14v-.73q0-8.39 4.68-13.75 4.68-5.35 12.96-5.35 8.32 0 13.04 5.33 4.71 5.34 4.71 13.77v.73q0 8.45-4.7 13.78-4.69 5.32-12.98 5.32-8.32 0-13.02-5.32-4.69-5.33-4.69-13.78m10.08-.73v.73q0 5.13 1.81 8.23 1.8 3.1 5.82 3.1 3.92 0 5.74-3.12t1.82-8.21v-.73q0-4.99-1.84-8.15-1.84-3.15-5.79-3.15-3.92 0-5.74 3.17t-1.82 8.13m51.14-6.38v7.8h-19.55v-7.8zm18.82-12.03v37.51h-10.12v-37.51zm0-16.57v7.59h-10.12v-7.59zm8.32 16.57h9.4l.41 4.96q1.81-2.71 4.53-4.18t6.29-1.47q3.61 0 6.17 1.59 2.57 1.6 3.89 4.82 1.73-3.02 4.5-4.72 2.78-1.69 6.52-1.69 5.55 0 8.75 3.83 3.21 3.83 3.21 11.66v22.71h-10.12v-22.74q0-4.27-1.39-5.93t-4.13-1.66q-2.14 0-3.72.95t-2.52 2.65q0 .66.04 1.13.03.47.03.95v24.65h-10.08v-22.74q0-4.16-1.39-5.88-1.39-1.71-4.16-1.71-2.05 0-3.59.78t-2.55 2.2v27.35h-10.09zm93.57 37.51h-10.12q-.56-1.28-.95-2.7-.4-1.43-.58-2.92-1.56 2.74-4.1 4.55-2.55 1.8-6.09 1.8-5.89 0-9.08-3.04-3.19-3.03-3.19-8.26 0-5.52 4.25-8.55 4.24-3.03 12.39-3.03h5.65v-2.98q0-2.71-1.42-4.2t-4.2-1.49q-2.46 0-3.79 1.2-1.34 1.19-1.34 3.31l-9.77-.04-.04-.21q-.24-4.75 4.13-8.19 4.37-3.45 11.47-3.45 6.73 0 10.92 3.41 4.2 3.42 4.2 9.73v15.49q0 2.64.4 4.96t1.26 4.61m-19.38-6.76q2.67 0 4.75-1.32t2.81-3.05v-5.3h-5.65q-3.22 0-4.89 1.61-1.66 1.61-1.66 3.9 0 1.87 1.25 3.02 1.24 1.14 3.39 1.14m23.82-10.96v-.72q0-8.88 3.87-14.32 3.86-5.44 10.83-5.44 3.15 0 5.55 1.42 2.39 1.42 4.09 4.05l.79-4.78h8.74v37.34q0 7.31-4.8 11.32-4.8 4-13.37 4-2.84 0-6.03-.78t-5.89-2.13l1.87-7.56q2.32 1.11 4.73 1.68t5.26.57q4.16 0 6.11-1.73 1.96-1.73 1.96-5.41v-3.4q-1.66 2.12-3.91 3.23-2.26 1.11-5.17 1.11-6.9 0-10.76-5.08-3.87-5.08-3.87-13.37m10.12-.72v.72q0 4.93 1.67 7.75 1.66 2.83 5.41 2.83 2.32 0 3.93-.85t2.58-2.48v-16.29q-.97-1.7-2.58-2.64-1.61-.93-3.87-.93-3.7 0-5.42 3.29t-1.72 8.6m48.12 19.17q-8.11 0-12.96-5.2-4.86-5.2-4.86-13.21v-1.39q0-8.35 4.6-13.76 4.59-5.41 12.32-5.37 7.59 0 11.79 4.57 4.19 4.58 4.19 12.38v5.51H376.8l-.07.21q.28 3.71 2.48 6.1t5.98 2.39q3.36 0 5.58-.67 2.22-.68 4.85-2.14l2.74 6.24q-2.29 1.88-6 3.11t-8.25 1.23m-.9-31.13q-2.81 0-4.44 2.15t-2.01 5.65l.11.17h12.41v-.9q0-3.23-1.51-5.15t-4.56-1.92"/></svg>