<svg width="48" height="48" viewBox="0 0 48 48" fill="none" xmlns="http://www.w3.org/2000/svg">
<path d="M0 8C0 3.58172 3.58172 0 8 0H40C44.4183 0 48 3.58172 48 8V40C48 44.4183 44.4183 48 40 48H8C3.58172 48 0 44.4183 0 40V8Z" fill="#BEF264"></path>
<path d="M24 10.6667C20.6863 10.6667 18 13.353 18 16.6667C18 19.9805 20.6863 22.6667 24 22.6667C27.3137 22.6667 30 19.9805 30 16.6667C30 13.353 27.3137 10.6667 24 10.6667Z" fill="#022C22"></path>
<path d="M24 24.0001C17.6563 24.0001 13.2222 28.6949 12.6725 34.542C12.6374 34.9156 12.7613 35.2868 13.014 35.5644C13.2667 35.8419 13.6246 36.0001 14 36.0001H34C34.3753 36.0001 34.7332 35.8419 34.9859 35.5644C35.2386 35.2868 35.3626 34.9156 35.3274 34.542C34.7778 28.6949 30.3437 24.0001 24 24.0001Z" fill="#022C22"></path>
</svg>